# xmcd
#
# Track frame offsets: 
#        300
#        17325
#        37199
#        53848
#        69624
#        87501
#        102307
#        123583
#        140860
#        157344
#
# Disc length: 2277 seconds
#
# Revision: 5
# Processed by: cddbd v1.5.2PL0 Copyright (c) Steve Scherf et al.
# Submitted via: ExactAudioCopy v0.99pb5
#
DISCID=9608e10a
DTITLE=Bonnie Raitt - Takin' My Time
DYEAR=1973
DGENRE=Blues Rock
TTITLE0=You've Been In Love Too Long
TTITLE1=I Gave My Love A Candle
TTITLE2=Let Me In
TTITLE3=Everybody's Crying Mercy
TTITLE4=Cry Like A Rainstorm
TTITLE5=Wah She Go Do
TTITLE6=I Feel The Same
TTITLE7=I Thought I Was A Child
TTITLE8=Kokomo Blues/Write Me A Few Of Your Lines
TTITLE9=Guilty
EXTD=
EXTT0=
EXTT1=
EXTT2=
EXTT3=
EXTT4=
EXTT5=
EXTT6=
EXTT7=
EXTT8=
EXTT9=
PLAYORDER=
